<svg xmlns="http://www.w3.org/2000/svg" xmlns:xlink="http://www.w3.org/1999/xlink" version="1.1" x="0px" y="0px" viewBox="0 0 100 125" enable-background="new 0 0 100 100" xml:space="preserve"><g><g><g><g><path d="M26.303,80.344c0.482,4.119,4.267,7.498,8.422,7.498h29.629c4.157,0,7.945-3.379,8.423-7.498l6.174-53.068H20.136      L26.303,80.344z M63.259,34.095c0.125-1.412,1.355-2.449,2.753-2.336c1.407,0.121,2.448,1.357,2.336,2.766l-3.62,42.648      c-0.116,1.4-1.36,2.442-2.75,2.322c-1.409-0.114-2.449-1.348-2.333-2.752L63.259,34.095z M46.993,34.304      c0-1.408,1.141-2.556,2.542-2.556c1.414,0,2.553,1.147,2.553,2.556v42.653c0,1.408-1.139,2.547-2.553,2.547      c-1.401,0-2.542-1.139-2.542-2.547V34.304z M33.068,31.759c1.401-0.113,2.633,0.924,2.753,2.336l3.612,42.648      c0.125,1.404-0.923,2.638-2.318,2.752c-1.409,0.12-2.645-0.922-2.76-2.322l-3.62-42.648      C30.627,33.116,31.664,31.88,33.068,31.759z"/><path d="M59.144,11.99c0.06-0.273,0.101-0.555,0.101-0.858v-0.209C59.244,8.764,57.477,7,55.319,7h-8.831      c-2.156,0-3.927,1.764-3.927,3.922v0.209c0,0.303,0.046,0.585,0.104,0.858H59.144z"/><path d="M75.798,15.495H23.282c-3.6,0.054-6.186,2.208-6.201,5.541v2.351H82v-2.351C81.979,17.703,79.392,15.549,75.798,15.495z      "/></g></g></g></g><text x="0" y="115" fill="#a9a9a9" font-size="5px" font-weight="bold" font-family="'Helvetica Neue', Helvetica, Arial-Unicode, Arial, Sans-serif"></text><text x="0" y="120" fill="#a9a9a9" font-size="5px" font-weight="bold" font-family="'Helvetica Neue', Helvetica, Arial-Unicode, Arial, Sans-serif"></text></svg>
